<?xml version="1.0" encoding="UTF-8" standalone="no"?>
<svg
   xmlns:dc="http://purl.org/dc/elements/1.1/"
   xmlns:cc="http://creativecommons.org/ns#"
   xmlns:rdf="http://www.w3.org/1999/02/22-rdf-syntax-ns#"
   xmlns:svg="http://www.w3.org/2000/svg"
   xmlns="http://www.w3.org/2000/svg"
   xmlns:sodipodi="http://sodipodi.sourceforge.net/DTD/sodipodi-0.dtd"
   xmlns:inkscape="http://www.inkscape.org/namespaces/inkscape"
   aria-hidden="true"
   focusable="false"
   data-prefix="fas"
   data-icon="check-square"
   class="svg-inline--fa fa-check-square fa-w-14"
   role="img"
   viewBox="0 0 448 448"
   version="1.1"
   id="svg4"
   sodipodi:docname="check-square-solid.svg"
   width="448"
   height="448"
   inkscape:version="0.92.3 (2405546, 2018-03-11)">
  <metadata
     id="metadata10">
    <rdf:RDF>
      <cc:Work
         rdf:about="">
        <dc:format>image/svg+xml</dc:format>
        <dc:type
           rdf:resource="http://purl.org/dc/dcmitype/StillImage" />
        <dc:title></dc:title>
      </cc:Work>
    </rdf:RDF>
  </metadata>
  <defs
     id="defs8" />
  <sodipodi:namedview
     pagecolor="#ffffff"
     bordercolor="#666666"
     borderopacity="1"
     objecttolerance="10"
     gridtolerance="10"
     guidetolerance="10"
     inkscape:pageopacity="0"
     inkscape:pageshadow="2"
     inkscape:window-width="1920"
     inkscape:window-height="975"
     id="namedview6"
     showgrid="false"
     inkscape:zoom="1.4897651"
     inkscape:cx="110.24379"
     inkscape:cy="215.58209"
     inkscape:window-x="0"
     inkscape:window-y="40"
     inkscape:window-maximized="1"
     inkscape:current-layer="svg4" />
  <path
     d="M 400,448 H 48 C 21.49,448 0,426.51 0,400 V 48 C 0,21.49 21.49,0 48,0 h 352 c 26.51,0 48,21.49 48,48 v 352 c 0,26.51 -21.49,48 -48,48 z m -204.686,-98.059 184,-184 c 6.248,-6.248 6.248,-16.379 0,-22.627 l -22.627,-22.627 c -6.248,-6.248 -16.379,-6.249 -22.628,0 L 184,270.745 113.941,200.686 c -6.248,-6.248 -16.379,-6.248 -22.628,0 l -22.627,22.627 c -6.248,6.248 -6.248,16.379 0,22.627 l 104,104 c 6.249,6.25 16.379,6.25 22.628,10e-4 z"
     id="path2"
     inkscape:connector-curvature="0"
     style="fill:currentColor" />
</svg>
